<svg width="146" height="146" viewBox="0 0 146 146" fill="none" xmlns="http://www.w3.org/2000/svg">
<circle cx="73" cy="73" r="70" fill="white"/>
<path d="M72.5724 145.145C112.203 145.145 145.145 112.274 145.145 72.5727C145.145 32.9424 112.132 0 72.5014 0C32.7997 0 0 32.9424 0 72.5727C0 112.274 32.871 145.145 72.5724 145.145ZM72.5724 31.5906C86.1621 31.5906 96.9768 43.5437 96.9768 57.916C96.9768 73.2129 86.2331 84.8816 72.5724 84.7392C58.8406 84.5969 48.1683 73.2129 48.1683 57.916C48.0259 43.5437 58.9117 31.5906 72.5724 31.5906ZM115.831 114.693L116.045 115.618C105.088 127.287 88.8657 133.975 72.5724 133.975C56.2081 133.975 39.9858 127.287 29.029 115.618L29.2424 114.693C35.4322 106.155 50.6585 96.8347 72.5724 96.8347C94.4153 96.8347 109.713 106.155 115.831 114.693Z" fill="#27CFD6"/>
</svg>
